<svg width="554" height="550" viewBox="0 0 554 550" fill="none" xmlns="http://www.w3.org/2000/svg">
<path d="M225.798 535.725C225.523 536.918 225.007 537.925 224.25 538.748C223.491 539.583 222.587 540.162 221.539 540.487C220.48 540.809 219.383 540.839 218.249 540.577C216.916 540.269 215.827 539.678 214.981 538.806C214.136 537.933 213.622 536.854 213.439 535.567L215.35 536.009C215.519 536.824 215.879 537.504 216.43 538.051C216.97 538.594 217.684 538.968 218.573 539.173C219.426 539.371 220.238 539.349 221.008 539.108C221.778 538.867 222.441 538.423 222.997 537.775C223.55 537.14 223.94 536.331 224.167 535.348C224.391 534.378 224.395 533.48 224.18 532.654C223.961 531.84 223.559 531.156 222.973 530.602C222.386 530.048 221.666 529.672 220.813 529.475C219.924 529.27 219.12 529.287 218.399 529.527C217.664 529.776 217.042 530.23 216.533 530.888L214.621 530.446C215.348 529.382 216.282 528.644 217.424 528.23C218.564 527.828 219.8 527.781 221.133 528.089C222.267 528.351 223.241 528.853 224.055 529.596C224.854 530.347 225.414 531.258 225.733 532.329C226.052 533.401 226.074 534.533 225.798 535.725Z" fill="white"/>
<path d="M197.611 521.629C198.714 522 199.635 522.594 200.373 523.412C201.107 524.241 201.586 525.206 201.811 526.307C202.02 527.416 201.93 528.55 201.54 529.711C201.15 530.871 200.538 531.824 199.705 532.569C198.857 533.322 197.892 533.801 196.81 534.007C195.724 534.224 194.629 534.147 193.526 533.776C192.411 533.401 191.487 532.799 190.753 531.97C190.015 531.152 189.54 530.195 189.326 529.098C189.113 528 189.203 526.866 189.597 525.694C189.991 524.523 190.605 523.564 191.438 522.819C192.271 522.074 193.23 521.592 194.316 521.375C195.398 521.169 196.496 521.254 197.611 521.629ZM197.158 522.977C196.327 522.697 195.517 522.64 194.728 522.805C193.927 522.966 193.218 523.342 192.602 523.932C191.974 524.519 191.501 525.284 191.184 526.228C190.862 527.183 190.777 528.079 190.926 528.914C191.061 529.757 191.393 530.482 191.922 531.091C192.452 531.7 193.138 532.145 193.979 532.428C194.821 532.711 195.637 532.771 196.426 532.606C197.216 532.441 197.925 532.065 198.552 531.479C199.165 530.9 199.632 530.132 199.953 529.177C200.271 528.233 200.362 527.34 200.228 526.497C200.082 525.65 199.744 524.923 199.215 524.314C198.674 523.702 197.988 523.256 197.158 522.977Z" fill="white"/>
<path d="M162.045 521.023L167.202 509.684L168.693 510.363L164.848 518.817L172.462 512.076L173.51 512.553L173.443 522.746L177.295 514.275L178.786 514.953L173.63 526.291L172.024 525.561L172.092 514.281L163.635 521.746L162.045 521.023Z" fill="white"/>
<path d="M147.616 512.232L149.688 508.585L145.712 506.327L146.379 505.153L150.355 507.412L152.489 503.656L148.044 501.13L148.711 499.956L154.58 503.291L148.373 514.215L142.504 510.88L143.171 509.706L147.616 512.232Z" fill="white"/>
<path d="M122.902 482.744C123.826 483.453 124.505 484.313 124.938 485.326C125.364 486.348 125.505 487.416 125.361 488.531C125.201 489.647 124.748 490.692 124.003 491.663C123.258 492.634 122.371 493.338 121.342 493.773C120.296 494.211 119.227 494.352 118.137 494.197C117.039 494.051 116.028 493.623 115.105 492.915C114.171 492.2 113.492 491.331 113.066 490.309C112.632 489.296 112.492 488.236 112.646 487.129C112.799 486.022 113.252 484.978 114.004 483.997C114.756 483.016 115.646 482.308 116.676 481.872C117.705 481.437 118.769 481.292 119.867 481.438C120.957 481.593 121.969 482.029 122.902 482.744ZM122.037 483.873C121.342 483.34 120.594 483.024 119.793 482.924C118.983 482.817 118.191 482.943 117.417 483.302C116.633 483.654 115.938 484.225 115.332 485.015C114.719 485.815 114.348 486.635 114.219 487.473C114.073 488.314 114.152 489.108 114.457 489.855C114.761 490.603 115.265 491.246 115.97 491.787C116.675 492.327 117.427 492.647 118.228 492.747C119.028 492.846 119.821 492.72 120.604 492.369C121.371 492.019 122.061 491.444 122.675 490.644C123.281 489.854 123.657 489.038 123.802 488.197C123.938 487.349 123.854 486.551 123.55 485.804C123.237 485.05 122.732 484.406 122.037 483.873Z" fill="white"/>
<path d="M100.09 463.595L101.289 464.71L99.312 476.512L106.114 469.196L107.314 470.311L98.759 479.513L97.5594 478.397L99.5243 466.608L92.7344 473.911L91.5348 472.796L100.09 463.595Z" fill="white"/>
<path d="M88.0121 454.608L92.921 452.762L93.673 453.562L89.2448 455.92L88.0121 454.608Z" fill="white"/>
<path d="M72.5521 432.558C73.0479 433.221 73.3781 433.903 73.5426 434.604C73.6904 435.303 73.669 435.956 73.4785 436.562C73.2783 437.177 72.908 437.693 72.3673 438.112L71.3218 436.714C71.7568 436.314 72.012 435.823 72.0873 435.243C72.1457 434.66 71.9307 434.041 71.4421 433.388C70.975 432.763 70.4548 432.388 69.8814 432.262C69.2912 432.134 68.751 432.253 68.2608 432.62C67.8764 432.907 67.6431 433.246 67.5609 433.637C67.4787 434.029 67.4937 434.429 67.6059 434.84C67.7181 435.251 67.9033 435.779 68.1615 436.425C68.4843 437.217 68.7101 437.88 68.8389 438.413C68.9605 438.936 68.9465 439.479 68.7968 440.04C68.6304 440.599 68.2348 441.112 67.6101 441.579C67.0623 441.989 66.4727 442.212 65.8415 442.25C65.2102 442.287 64.5924 442.142 63.9881 441.815C63.3766 441.478 62.8266 440.983 62.338 440.329C61.6338 439.387 61.2944 438.442 61.3199 437.494C61.3381 436.537 61.7077 435.729 62.4287 435.07L63.5065 436.511C63.158 436.847 62.9725 437.3 62.9501 437.871C62.918 438.45 63.1211 439.032 63.5594 439.618C63.969 440.166 64.4473 440.505 64.9943 440.636C65.5317 440.773 66.0551 440.652 66.5645 440.271C66.9297 439.998 67.1522 439.674 67.2319 439.3C67.3045 438.916 67.2919 438.528 67.1941 438.137C67.0795 437.743 66.8943 437.215 66.6385 436.552C66.3253 435.752 66.1091 435.082 65.9899 434.542C65.8611 434.009 65.8764 433.459 66.0356 432.89C66.1853 432.329 66.5772 431.811 67.2116 431.337C67.7017 430.97 68.26 430.755 68.8865 430.691C69.513 430.627 70.1513 430.749 70.8012 431.058C71.4511 431.366 72.0348 431.866 72.5521 432.558Z" fill="white"/>
<path d="M48.135 419.354L49.2603 418.641L51.0902 421.53L60.564 415.53L61.4404 416.914L51.9666 422.914L53.8061 425.819L52.6808 426.531L48.135 419.354Z" fill="white"/>
<path d="M46.9094 397.446L49.4467 402.295L52.386 401.894L53.1872 403.425L40.032 405.19L39.1556 403.516L48.1127 393.729L48.9139 395.26L46.9094 397.446ZM45.9462 398.479L41.3842 403.426L48.0495 402.498L45.9462 398.479Z" fill="white"/>
<path d="M39.9739 375.991L36.3993 380.731L37.1653 382.557L41.8958 380.572L42.5295 382.083L30.9604 386.936L29.3936 383.202C29.0269 382.328 28.8675 381.529 28.9156 380.806C28.959 380.072 29.1726 379.449 29.5563 378.937C29.9399 378.424 30.4582 378.031 31.1111 377.757C31.9078 377.423 32.708 377.361 33.5115 377.57C34.3105 377.769 35.0022 378.285 35.5867 379.12L39.2148 374.182L39.9739 375.991ZM35.9536 383.065L35.0205 380.841C34.6769 380.022 34.2201 379.492 33.65 379.249C33.0688 379.012 32.4407 379.035 31.7657 379.318C31.0796 379.606 30.6343 380.033 30.4299 380.6C30.2208 381.157 30.2903 381.85 30.6385 382.68L31.5716 384.904L35.9536 383.065Z" fill="white"/>
<path d="M20.6164 359.639L21.8809 359.22L22.9561 362.466L33.6014 358.941L34.1164 360.496L23.471 364.021L24.5519 367.285L23.2874 367.704L20.6164 359.639Z" fill="white"/>
<path d="M11.5599 321.867L23.8148 319.637L24.108 321.249L14.97 322.911L24.849 325.322L25.0552 326.455L16.6436 332.212L25.7994 330.546L26.0925 332.158L13.8377 334.387L13.522 332.652L22.8269 326.275L11.8724 323.585L11.5599 321.867Z" fill="white"/>
<path d="M18.431 298.437L18.8822 303.89L21.7458 304.665L21.8883 306.387L9.08274 302.895L8.9269 301.011L20.9859 295.48L21.1284 297.202L18.431 298.437ZM17.1421 299.013L11.0147 301.796L17.5161 303.533L17.1421 299.013Z" fill="white"/>
<path d="M20.4148 272.696L20.4027 274.334L10.3645 280.849L20.3542 280.922L20.3422 282.56L7.77852 282.468L7.79057 280.83L17.8108 274.315L7.83906 274.242L7.85111 272.604L20.4148 272.696Z" fill="white"/>
<path d="M18.8804 251.831L18.349 257.277L21.0279 258.551L20.8601 260.271L8.88561 254.545L9.06916 252.664L21.923 249.379L21.7551 251.099L18.8804 251.831ZM17.5093 252.167L10.983 253.809L17.0688 256.682L17.5093 252.167Z" fill="white"/>
<path d="M16.6367 225.496C15.8517 225.697 15.2018 226.084 14.687 226.657C14.1605 227.226 13.8136 227.941 13.6463 228.801C13.4789 229.661 13.5279 230.478 13.7932 231.25C14.049 232.009 14.5089 232.661 15.1731 233.206C15.8278 233.737 16.638 234.096 17.6039 234.284C18.5698 234.472 19.4557 234.443 20.2617 234.196C21.0699 233.938 21.7407 233.506 22.2741 232.901C22.7981 232.281 23.1437 231.542 23.311 230.682C23.5448 229.48 23.378 228.421 22.8108 227.504C22.2435 226.587 21.36 225.944 20.1602 225.576L19.2044 230.488L17.897 230.233L19.1862 223.608L20.423 223.848C21.4176 224.14 22.2863 224.639 23.029 225.346C23.7599 226.05 24.2867 226.892 24.6095 227.872C24.9206 228.849 24.9707 229.88 24.7598 230.964C24.5375 232.106 24.0696 233.097 23.3562 233.936C22.631 234.773 21.7375 235.376 20.6757 235.744C19.6162 236.1 18.4857 236.161 17.2842 235.927C16.0827 235.693 15.0577 235.213 14.209 234.485C13.3508 233.744 12.7484 232.85 12.4017 231.805C12.0432 230.757 11.9751 229.662 12.1974 228.519C12.4518 227.212 13.0004 226.121 13.843 225.245C14.688 224.358 15.7441 223.8 17.0114 223.57L16.6367 225.496Z" fill="white"/>
<path d="M17.3535 206.678L29.4547 209.989L29.0223 211.569L16.9212 208.258L17.3535 206.678Z" fill="white"/>
<path d="M35.8358 189.853L35.2941 191.399L23.6876 194.313L33.1155 197.616L32.5739 199.162L20.7167 195.008L21.2584 193.462L32.8479 190.542L23.4369 187.244L23.9786 185.699L35.8358 189.853Z" fill="white"/>
<path d="M36.4672 165.126C35.6568 165.136 34.9336 165.357 34.2977 165.791C33.6509 166.219 33.1441 166.832 32.7774 167.627C32.4106 168.423 32.2644 169.227 32.3385 170.041C32.4068 170.839 32.6988 171.581 33.2145 172.268C33.7244 172.939 34.4262 173.481 35.3198 173.893C36.2134 174.305 37.081 174.487 37.9224 174.439C38.7689 174.379 39.5231 174.119 40.185 173.658C40.841 173.181 41.3524 172.544 41.7191 171.749C42.2315 170.637 42.3211 169.569 41.9879 168.543C41.6546 167.517 40.949 166.683 39.8709 166.041L37.776 170.585L36.5664 170.028L39.3921 163.898L40.5364 164.425C41.4334 164.944 42.1587 165.635 42.7123 166.498C43.255 167.356 43.5668 168.3 43.6477 169.328C43.7178 170.351 43.5217 171.364 43.0595 172.367C42.5722 173.424 41.8825 174.275 40.9902 174.921C40.087 175.562 39.076 175.935 37.9571 176.04C36.8433 176.135 35.7306 175.926 34.619 175.413C33.5075 174.901 32.6258 174.19 31.9742 173.282C31.3167 172.358 30.9436 171.347 30.8551 170.249C30.7557 169.146 30.9496 168.066 31.4369 167.009C31.9945 165.8 32.7865 164.87 33.8129 164.22C34.8443 163.559 36.0029 163.267 37.2886 163.344L36.4672 165.126Z" fill="white"/>
<path d="M52.4206 129.188L56.7789 136.851L60.7599 139.413L59.8735 140.79L55.8925 138.229L47.1023 137.452L48.0861 135.924L55.1047 136.759L51.4368 130.717L52.4206 129.188Z" fill="white"/>
<path d="M73.1992 121.833C72.4839 122.751 71.6183 123.423 70.6024 123.848C69.577 124.267 68.5076 124.4 67.3942 124.247C66.2787 124.078 65.2381 123.618 64.2725 122.865C63.3068 122.113 62.6101 121.221 62.1825 120.188C61.7527 119.139 61.6197 118.069 61.7836 116.98C61.938 115.883 62.3728 114.876 63.088 113.958C63.8106 113.03 64.6846 112.357 65.71 111.939C66.7259 111.513 67.7869 111.381 68.8929 111.543C69.999 111.705 71.0396 112.165 72.0147 112.925C72.9898 113.684 73.6912 114.58 74.1189 115.613C74.5466 116.646 74.6832 117.71 74.5288 118.807C74.365 119.896 73.9218 120.905 73.1992 121.833ZM72.0773 120.959C72.6155 120.268 72.9376 119.522 73.0433 118.722C73.1565 117.913 73.0365 117.12 72.6834 116.343C72.3377 115.557 71.7719 114.857 70.9861 114.245C70.1908 113.626 69.3744 113.249 68.5367 113.113C67.6969 112.961 66.9023 113.034 66.1527 113.333C65.4031 113.631 64.7555 114.131 64.2099 114.831C63.6643 115.532 63.3386 116.282 63.2328 117.082C63.127 117.882 63.247 118.675 63.5927 119.461C63.9364 120.231 64.5058 120.925 65.3011 121.545C66.0869 122.157 66.8997 122.539 67.7394 122.691C68.5866 122.834 69.3849 122.756 70.1345 122.457C70.8914 122.149 71.539 121.65 72.0773 120.959Z" fill="white"/>
<path d="M77.7278 96.5619L83.5 102.011C84.3116 102.777 85.099 103.149 85.8624 103.127C86.634 103.096 87.3534 102.728 88.0206 102.021C88.6796 101.323 88.9981 100.592 88.9761 99.8287C88.9624 99.0566 88.5498 98.2876 87.7383 97.5215L81.966 92.0723L83.0904 90.8812L88.8496 96.318C89.6088 97.0347 90.106 97.7928 90.3412 98.5925C90.5677 99.3839 90.5604 100.161 90.3192 100.923C90.0862 101.677 89.665 102.377 89.0554 103.022C88.4458 103.668 87.7674 104.133 87.0201 104.418C86.281 104.694 85.5099 104.742 84.7067 104.561C83.9031 104.364 83.1217 103.906 82.3625 103.19L76.6034 97.753L77.7278 96.5619Z" fill="white"/>
<path d="M106.836 85.481L101.189 83.6467L99.713 84.9661L103.131 88.7913L101.91 89.8827L93.5501 80.5277L96.57 77.8291C97.2769 77.1974 97.9799 76.7865 98.679 76.5963C99.387 76.3981 100.046 76.3969 100.655 76.5926C101.265 76.7883 101.805 77.1501 102.277 77.678C102.853 78.3223 103.172 79.0584 103.236 79.8864C103.309 80.7063 103.046 81.5287 102.448 82.3534L108.299 84.1737L106.836 85.481ZM98.8374 83.9863L100.636 82.3791C101.298 81.7874 101.651 81.1826 101.694 80.5646C101.729 79.9377 101.503 79.3513 101.015 78.8055C100.519 78.2507 99.9701 77.9691 99.3672 77.9607C98.7732 77.9444 98.1406 78.236 97.4695 78.8357L95.671 80.4429L98.8374 83.9863Z" fill="white"/>
<path d="M126.959 54.0739L127.714 55.1718L124.895 57.1082L131.244 66.3515L129.894 67.279L123.544 58.0357L120.711 59.9823L119.956 58.8844L126.959 54.0739Z" fill="white"/>
<path d="M149.47 54.8629L144.315 51.9187L142.601 52.9102L145.17 57.3507L143.752 58.1709L137.469 47.3113L140.975 45.2832C141.796 44.8085 142.568 44.5491 143.291 44.5051C144.024 44.455 144.669 44.5878 145.226 44.9033C145.783 45.2189 146.239 45.6831 146.593 46.2959C147.026 47.0438 147.19 47.8296 147.084 48.6532C146.988 49.4709 146.564 50.2226 145.81 50.9083L151.168 53.8804L149.47 54.8629ZM141.943 51.7729L144.031 50.565C144.799 50.1203 145.268 49.5999 145.436 49.0036C145.598 48.3969 145.495 47.7768 145.129 47.1432C144.756 46.4992 144.276 46.1118 143.687 45.981C143.109 45.8441 142.43 46.0011 141.651 46.4518L139.563 47.6596L141.943 51.7729Z" fill="white"/>
<path d="M167.226 42.5059L162.275 44.8344L162.55 47.7882L160.986 48.5235L159.782 35.305L161.493 34.5008L170.89 43.8664L169.326 44.6017L167.226 42.5059ZM166.236 41.4996L161.487 36.7311L162.131 43.4299L166.236 41.4996Z" fill="white"/>
<path d="M182.142 25.6236C183.427 25.155 184.626 24.9924 185.738 25.136C186.858 25.2642 187.828 25.6832 188.649 26.393C189.481 27.0986 190.117 28.0546 190.557 29.2609C190.997 30.4672 191.125 31.6082 190.943 32.6838C190.767 33.744 190.292 34.6836 189.518 35.5024C188.751 36.3058 187.725 36.9418 186.439 37.4105L182.77 38.7486L178.472 26.9617L182.142 25.6236ZM185.977 36.1422C187.499 35.5872 188.514 34.7636 189.023 33.6712C189.527 32.5677 189.514 31.2887 188.984 29.8344C188.45 28.3687 187.626 27.3724 186.515 26.8454C185.414 26.3143 184.109 26.3242 182.598 26.875L180.467 27.652L183.846 36.9191L185.977 36.1422Z" fill="white"/>
<path d="M203.202 20.042L204.309 24.0871L208.719 22.8798L209.075 24.1819L204.666 25.3892L205.806 29.5559L210.737 28.206L211.093 29.508L204.583 31.2905L201.265 19.1724L207.776 17.39L208.132 18.6921L203.202 20.042Z" fill="white"/>
<path d="M227.164 25.9091C226.35 26.0654 225.593 26.0643 224.89 25.906C224.197 25.7337 223.619 25.4292 223.157 24.9927C222.692 24.5443 222.389 23.9855 222.248 23.316L223.963 22.9866C224.132 23.5527 224.462 23.9965 224.952 24.3179C225.451 24.6253 226.101 24.702 226.902 24.548C227.668 24.4009 228.233 24.0969 228.596 23.636C228.969 23.1611 229.098 22.6231 228.983 22.0221C228.892 21.5507 228.689 21.1926 228.373 20.9478C228.057 20.703 227.69 20.5414 227.272 20.4629C226.854 20.3844 226.297 20.3202 225.604 20.2702C224.75 20.2143 224.055 20.1278 223.519 20.0108C222.995 19.8915 222.514 19.6419 222.074 19.262C221.644 18.8681 221.355 18.2881 221.208 17.5221C221.079 16.8504 221.136 16.2225 221.378 15.6383C221.62 15.0541 222.02 14.5617 222.579 14.1612C223.149 13.7584 223.835 13.48 224.636 13.326C225.791 13.1041 226.789 13.2117 227.631 13.6488C228.484 14.0836 229.05 14.7692 229.327 15.7057L227.56 16.0453C227.41 15.5852 227.083 15.2203 226.579 14.9505C226.073 14.669 225.461 14.5973 224.742 14.7354C224.07 14.8644 223.556 15.1465 223.2 15.5815C222.841 16.0048 222.722 16.5287 222.842 17.1533C222.928 17.6011 223.122 17.9426 223.424 18.1779C223.737 18.4109 224.091 18.5689 224.486 18.6519C224.89 18.7209 225.447 18.7851 226.155 18.8446C227.011 18.9123 227.708 19.0106 228.246 19.1394C228.781 19.2564 229.27 19.5108 229.712 19.9024C230.152 20.2823 230.446 20.8612 230.595 21.6389C230.711 22.2399 230.661 22.8362 230.444 23.4276C230.228 24.019 229.839 24.5397 229.278 24.9897C228.717 25.4396 228.012 25.7461 227.164 25.9091Z" fill="white"/>
<path d="M320.785 18.1151C321.025 16.9149 321.511 15.8923 322.243 15.0473C322.977 14.1906 323.863 13.5845 324.901 13.2291C325.95 12.876 327.046 12.8135 328.187 13.0417C329.529 13.3098 330.635 13.8675 331.506 14.7146C332.377 15.5618 332.923 16.6255 333.144 17.9057L331.22 17.5211C331.027 16.7115 330.647 16.042 330.08 15.5126C329.524 14.9855 328.799 14.6325 327.905 14.4537C327.046 14.282 326.235 14.328 325.473 14.5916C324.71 14.8553 324.061 15.319 323.524 15.9827C322.99 16.6346 322.624 17.4548 322.427 18.4433C322.232 19.4199 322.254 20.3178 322.494 21.1367C322.737 21.9439 323.159 22.6158 323.762 23.1523C324.364 23.6888 325.095 24.0429 325.954 24.2146C326.848 24.3934 327.652 24.3521 328.365 24.0909C329.092 23.8201 329.7 23.3482 330.19 22.6751L332.114 23.0597C331.42 24.1447 330.508 24.9108 329.378 25.3581C328.251 25.7935 327.017 25.8772 325.675 25.609C324.534 25.3809 323.545 24.9079 322.71 24.1902C321.888 23.4631 321.302 22.5689 320.951 21.5075C320.601 20.4462 320.545 19.3154 320.785 18.1151Z" fill="white"/>
<path d="M349.379 31.3682C348.265 31.0301 347.327 30.4633 346.565 29.6677C345.807 28.8607 345.299 27.9102 345.042 26.8163C344.8 25.7144 344.856 24.5778 345.212 23.4066C345.567 22.2353 346.15 21.2648 346.961 20.4951C347.786 19.7173 348.737 19.2095 349.812 18.9716C350.891 18.7223 351.988 18.7666 353.101 19.1047C354.227 19.4463 355.168 20.0206 355.927 20.8277C356.688 21.6232 357.192 22.5662 357.438 23.6566C357.684 24.7471 357.627 25.8836 357.268 27.0663C356.909 28.2491 356.325 29.2253 355.514 29.9951C354.704 30.7648 353.759 31.2744 352.68 31.5237C351.605 31.7616 350.504 31.7098 349.379 31.3682ZM349.792 30.0075C350.63 30.2619 351.441 30.295 352.226 30.1068C353.022 29.922 353.719 29.5254 354.318 28.9171C354.928 28.3122 355.377 27.5332 355.667 26.5801C355.959 25.6156 356.019 24.7181 355.844 23.8877C355.685 23.0492 355.332 22.3337 354.784 21.7412C354.237 21.1486 353.538 20.7233 352.688 20.4654C351.839 20.2075 351.021 20.1727 350.237 20.3609C349.452 20.5492 348.755 20.9457 348.145 21.5506C347.55 22.1475 347.106 22.9283 346.814 23.8928C346.524 24.8459 346.459 25.7416 346.619 26.58C346.789 27.422 347.149 28.1392 347.696 28.7318C348.255 29.3278 348.954 29.7531 349.792 30.0075Z" fill="white"/>
<path d="M384.946 30.9174L380.129 42.4041L378.618 41.7706L382.21 33.2054L374.8 40.1695L373.738 39.724L373.502 29.534L369.903 38.1159L368.393 37.4824L373.21 25.9956L374.837 26.6778L375.104 37.9548L383.336 30.2421L384.946 30.9174Z" fill="white"/>
<path d="M399.631 39.276L397.668 42.9824L401.709 45.122L401.077 46.3151L397.036 44.1754L395.015 47.9932L399.532 50.3855L398.901 51.5786L392.935 48.4196L398.815 37.3164L404.78 40.4753L404.149 41.6684L399.631 39.276Z" fill="white"/>
<path d="M425.209 68.0165C424.265 67.336 423.561 66.4961 423.098 65.4968C422.642 64.4878 422.469 63.4241 422.58 62.3057C422.707 61.1847 423.128 60.1276 423.844 59.1346C424.559 58.1415 425.425 57.412 426.441 56.9461C427.474 56.4775 428.538 56.3047 429.632 56.4278C430.734 56.5411 431.757 56.938 432.701 57.6185C433.655 58.306 434.361 59.1543 434.817 60.1633C435.28 61.1626 435.451 62.218 435.331 63.3293C435.211 64.4406 434.789 65.4976 434.067 66.5004C433.344 67.5032 432.475 68.2376 431.459 68.7035C430.443 69.1694 429.384 69.3457 428.282 69.2323C427.188 69.1093 426.163 68.704 425.209 68.0165ZM426.041 66.8628C426.751 67.3749 427.508 67.6689 428.311 67.7447C429.124 67.8276 429.912 67.6781 430.676 67.2962C431.449 66.9214 432.126 66.3299 432.708 65.5218C433.298 64.704 433.644 63.874 433.748 63.0319C433.869 62.187 433.766 61.3956 433.44 60.6577C433.114 59.9198 432.591 59.2913 431.87 58.7722C431.15 58.2531 430.388 57.9556 429.585 57.8798C428.781 57.8039 427.993 57.9534 427.22 58.3283C426.464 58.7004 425.791 59.2954 425.202 60.1132C424.62 60.9213 424.268 61.7477 424.148 62.5926C424.037 63.4445 424.144 64.2394 424.471 64.9773C424.806 65.7222 425.33 66.3507 426.041 66.8628Z" fill="white"/>
<path d="M448.581 86.4804L447.348 85.4012L448.974 73.5455L442.392 81.0607L441.16 79.9816L449.438 70.5299L450.67 71.6091L449.056 83.4513L455.626 75.9496L456.858 77.0287L448.581 86.4804Z" fill="white"/>
<path d="M460.919 95.1038L456.068 97.0957L455.292 96.3183L459.648 93.8294L460.919 95.1038Z" fill="white"/>
<path d="M477.027 116.686C476.512 116.037 476.162 115.365 475.977 114.67C475.808 113.976 475.81 113.323 475.983 112.71C476.164 112.09 476.519 111.563 477.047 111.128L478.134 112.495C477.711 112.908 477.47 113.405 477.412 113.988C477.371 114.573 477.605 115.184 478.112 115.823C478.598 116.434 479.129 116.793 479.706 116.902C480.3 117.012 480.836 116.877 481.315 116.496C481.691 116.198 481.914 115.851 481.984 115.458C482.055 115.065 482.028 114.665 481.904 114.258C481.779 113.85 481.579 113.328 481.301 112.69C480.955 111.907 480.71 111.252 480.565 110.723C480.428 110.203 480.426 109.661 480.559 109.095C480.709 108.531 481.089 108.007 481.699 107.521C482.235 107.096 482.817 106.855 483.447 106.799C484.077 106.742 484.699 106.869 485.313 107.178C485.934 107.497 486.498 107.975 487.006 108.614C487.738 109.535 488.105 110.469 488.108 111.417C488.118 112.375 487.773 113.194 487.072 113.874L485.952 112.465C486.29 112.119 486.462 111.661 486.467 111.089C486.482 110.51 486.262 109.934 485.806 109.361C485.381 108.826 484.893 108.501 484.342 108.387C483.801 108.265 483.281 108.402 482.783 108.798C482.426 109.082 482.214 109.412 482.145 109.789C482.084 110.174 482.108 110.561 482.217 110.95C482.344 111.34 482.544 111.863 482.82 112.517C483.157 113.307 483.393 113.971 483.528 114.507C483.672 115.036 483.674 115.587 483.531 116.16C483.398 116.726 483.022 117.255 482.402 117.748C481.923 118.129 481.371 118.36 480.747 118.443C480.123 118.525 479.481 118.422 478.822 118.133C478.163 117.844 477.565 117.362 477.027 116.686Z" fill="white"/>
<path d="M501.826 129.159L500.723 129.904L498.808 127.071L489.516 133.35L488.599 131.992L497.891 125.714L495.966 122.865L497.069 122.119L501.826 129.159Z" fill="white"/>
<path d="M503.702 151.02L501.022 146.249L498.096 146.737L497.25 145.23L510.347 143.075L511.272 144.723L502.61 154.772L501.764 153.265L503.702 151.02ZM504.634 149.959L509.048 144.879L502.413 146.005L504.634 149.959Z" fill="white"/>
<path d="M511.272 172.26L514.704 167.416L513.884 165.613L509.214 167.738L508.536 166.247L519.956 161.051L521.633 164.738C522.026 165.601 522.209 166.394 522.182 167.118C522.16 167.853 521.965 168.482 521.597 169.006C521.229 169.529 520.723 169.938 520.078 170.231C519.292 170.589 518.494 170.675 517.684 170.489C516.88 170.315 516.173 169.819 515.564 169.002L512.084 174.045L511.272 172.26ZM515.08 165.069L516.079 167.265C516.447 168.073 516.919 168.59 517.496 168.815C518.084 169.035 518.711 168.994 519.377 168.691C520.055 168.383 520.487 167.942 520.675 167.369C520.867 166.807 520.777 166.116 520.404 165.297L519.405 163.101L515.08 165.069Z" fill="white"/>
<path d="M531.106 188.03L529.854 188.486L528.683 185.273L518.147 189.113L517.586 187.574L528.122 183.734L526.945 180.504L528.196 180.048L531.106 188.03Z" fill="white"/>
<path d="M541.281 225.516L529.098 228.109L528.757 226.507L537.841 224.574L527.895 222.457L527.655 221.331L535.892 215.327L526.79 217.264L526.449 215.661L538.632 213.069L538.999 214.794L529.888 221.444L540.918 223.809L541.281 225.516Z" fill="white"/>
<path d="M535.109 249.14L534.496 243.703L531.611 243.013L531.417 241.296L544.321 244.406L544.532 246.285L532.643 252.171L532.449 250.454L535.109 249.14ZM536.38 248.526L542.422 245.562L535.872 244.018L536.38 248.526Z" fill="white"/>
<path d="M533.89 274.928L533.853 273.29L543.693 266.481L533.706 266.704L533.669 265.066L546.23 264.786L546.267 266.423L536.444 273.232L546.414 273.01L546.451 274.647L533.89 274.928Z" fill="white"/>
<path d="M536.044 295.739L536.414 290.279L533.698 289.085L533.815 287.361L545.954 292.729L545.826 294.614L533.076 298.28L533.192 296.556L536.044 295.739ZM537.405 295.362L543.879 293.526L537.711 290.836L537.405 295.362Z" fill="white"/>
<path d="M539.068 321.996C539.847 321.771 540.485 321.365 540.982 320.777C541.492 320.192 541.817 319.467 541.959 318.603C542.101 317.738 542.027 316.924 541.739 316.159C541.461 315.408 540.982 314.77 540.302 314.245C539.632 313.734 538.811 313.399 537.84 313.24C536.869 313.081 535.984 313.136 535.186 313.407C534.386 313.689 533.728 314.141 533.213 314.761C532.708 315.396 532.384 316.146 532.243 317.01C532.045 318.218 532.243 319.272 532.837 320.172C533.431 321.072 534.333 321.688 535.544 322.02L536.353 317.082L537.668 317.297L536.576 323.958L535.332 323.755C534.329 323.493 533.446 323.02 532.683 322.335C531.931 321.653 531.38 320.827 531.028 319.857C530.688 318.889 530.607 317.861 530.786 316.771C530.974 315.623 531.412 314.618 532.101 313.758C532.801 312.9 533.676 312.272 534.726 311.872C535.775 311.485 536.903 311.39 538.111 311.588C539.319 311.786 540.358 312.236 541.228 312.938C542.107 313.654 542.736 314.529 543.114 315.564C543.503 316.6 543.604 317.693 543.415 318.841C543.2 320.156 542.684 321.263 541.868 322.163C541.05 323.075 540.01 323.664 538.751 323.932L539.068 321.996Z" fill="white"/>
<path d="M538.911 340.826L526.716 337.876L527.102 336.284L539.296 339.234L538.911 340.826Z" fill="white"/>
<path d="M520.937 358.192L521.432 356.631L532.947 353.374L523.425 350.352L523.921 348.791L535.896 352.591L535.4 354.153L523.903 357.415L533.408 360.432L532.912 361.993L520.937 358.192Z" fill="white"/>
<path d="M521.039 382.928C521.849 382.894 522.565 382.651 523.188 382.199C523.822 381.751 524.31 381.124 524.653 380.318C524.996 379.512 525.119 378.703 525.02 377.892C524.928 377.097 524.614 376.363 524.078 375.692C523.549 375.036 522.831 374.516 521.926 374.131C521.02 373.745 520.148 373.589 519.308 373.662C518.464 373.747 517.718 374.029 517.07 374.51C516.428 375.006 515.936 375.658 515.593 376.464C515.114 377.59 515.056 378.661 515.42 379.676C515.783 380.692 516.513 381.504 517.61 382.114L519.569 377.51L520.795 378.031L518.152 384.242L516.993 383.749C516.081 383.257 515.335 382.587 514.756 381.741C514.188 380.9 513.849 379.966 513.737 378.941C513.637 377.92 513.803 376.902 514.235 375.886C514.691 374.815 515.355 373.943 516.227 373.271C517.111 372.604 518.111 372.201 519.226 372.063C520.336 371.935 521.455 372.111 522.581 372.59C523.707 373.069 524.61 373.753 525.288 374.642C525.973 375.546 526.376 376.545 526.497 377.64C526.629 378.74 526.467 379.825 526.011 380.896C525.49 382.122 524.726 383.075 523.719 383.755C522.708 384.446 521.559 384.772 520.271 384.733L521.039 382.928Z" fill="white"/>
<path d="M506.16 419.324L501.576 411.793L497.521 409.351L498.366 407.948L502.421 410.39L511.231 410.905L510.293 412.462L503.252 411.836L507.098 417.766L506.16 419.324Z" fill="white"/>
<path d="M485.61 427.293C486.297 426.354 487.143 425.656 488.145 425.201C489.158 424.752 490.223 424.588 491.34 424.707C492.46 424.843 493.514 425.272 494.502 425.995C495.489 426.719 496.212 427.59 496.67 428.609C497.131 429.646 497.296 430.711 497.164 431.804C497.043 432.905 496.638 433.925 495.95 434.864C495.256 435.813 494.402 436.512 493.389 436.96C492.387 437.416 491.33 437.579 490.22 437.45C489.109 437.321 488.055 436.892 487.058 436.162C486.061 435.432 485.333 434.557 484.875 433.537C484.417 432.517 484.249 431.457 484.37 430.357C484.502 429.263 484.915 428.242 485.61 427.293ZM486.757 428.133C486.24 428.84 485.94 429.595 485.858 430.397C485.769 431.209 485.912 431.999 486.288 432.765C486.657 433.541 487.243 434.223 488.047 434.811C488.86 435.407 489.688 435.759 490.529 435.87C491.373 435.997 492.165 435.9 492.905 435.58C493.646 435.259 494.278 434.741 494.803 434.024C495.328 433.308 495.631 432.548 495.713 431.745C495.795 430.943 495.651 430.154 495.282 429.378C494.916 428.619 494.326 427.942 493.513 427.346C492.709 426.758 491.885 426.4 491.042 426.273C490.191 426.155 489.395 426.257 488.654 426.578C487.907 426.908 487.275 427.426 486.757 428.133Z" fill="white"/>
<path d="M481.834 452.687L475.902 447.412C475.068 446.67 474.27 446.321 473.508 446.366C472.737 446.42 472.029 446.81 471.383 447.536C470.745 448.253 470.449 448.993 470.493 449.756C470.53 450.527 470.965 451.283 471.799 452.025L477.731 457.3L476.642 458.524L470.724 453.261C469.944 452.567 469.424 451.824 469.165 451.032C468.915 450.247 468.9 449.471 469.118 448.701C469.329 447.941 469.729 447.229 470.319 446.566C470.909 445.902 471.574 445.417 472.312 445.11C473.043 444.812 473.812 444.742 474.62 444.899C475.429 445.072 476.224 445.506 477.004 446.2L482.922 451.463L481.834 452.687Z" fill="white"/>
<path d="M453.068 464.628L458.766 466.293L460.203 464.931L456.672 461.209L457.861 460.081L466.495 469.184L463.556 471.971C462.868 472.624 462.178 473.055 461.485 473.266C460.783 473.485 460.125 473.506 459.51 473.328C458.895 473.151 458.344 472.805 457.856 472.292C457.262 471.665 456.92 470.938 456.832 470.113C456.734 469.295 456.973 468.466 457.547 467.623L451.644 465.978L453.068 464.628ZM461.107 465.884L459.357 467.544C458.713 468.155 458.378 468.77 458.353 469.389C458.337 470.017 458.58 470.596 459.084 471.127C459.596 471.667 460.153 471.932 460.756 471.923C461.351 471.921 461.974 471.611 462.627 470.992L464.377 469.332L461.107 465.884Z" fill="white"/>
<path d="M433.885 496.618L433.098 495.543L435.858 493.524L429.237 484.473L430.559 483.506L437.18 492.557L439.955 490.527L440.742 491.602L433.885 496.618Z" fill="white"/>
<path d="M411.361 496.498L416.602 499.288L418.285 498.246L415.586 493.884L416.979 493.022L423.581 503.69L420.137 505.821C419.331 506.32 418.567 506.603 417.846 506.668C417.114 506.74 416.465 506.626 415.899 506.327C415.333 506.029 414.864 505.578 414.491 504.976C414.037 504.241 413.85 503.461 413.931 502.634C414.002 501.814 414.404 501.05 415.137 500.342L409.693 497.531L411.361 496.498ZM418.977 499.363L416.926 500.633C416.171 501.1 415.718 501.634 415.568 502.235C415.424 502.846 415.545 503.463 415.93 504.086C416.321 504.718 416.813 505.091 417.406 505.205C417.988 505.324 418.661 505.147 419.427 504.674L421.478 503.404L418.977 499.363Z" fill="white"/>
<path d="M393.98 509.377L398.86 506.903L398.498 503.958L400.039 503.177L401.634 516.354L399.949 517.208L390.278 508.126L391.819 507.345L393.98 509.377ZM395 510.354L399.888 514.979L399.045 508.302L395 510.354Z" fill="white"/>
<path d="M379.573 526.695C378.302 527.202 377.109 527.4 375.992 527.289C374.869 527.194 373.887 526.804 373.046 526.119C372.193 525.439 371.529 524.502 371.053 523.309C370.578 522.117 370.415 520.98 370.566 519.899C370.71 518.834 371.157 517.881 371.906 517.04C372.649 516.214 373.656 515.548 374.927 515.041L378.555 513.595L383.201 525.249L379.573 526.695ZM375.427 516.295C373.922 516.895 372.932 517.748 372.456 518.855C371.984 519.973 372.035 521.251 372.608 522.689C373.186 524.138 374.038 525.11 375.165 525.604C376.281 526.102 377.586 526.053 379.08 525.458L381.186 524.618L377.534 515.455L375.427 516.295Z" fill="white"/>
<path d="M358.688 532.9L357.46 528.889L353.088 530.227L352.693 528.936L357.065 527.598L355.801 523.467L350.913 524.963L350.518 523.672L356.973 521.697L360.649 533.711L354.194 535.686L353.799 534.395L358.688 532.9Z" fill="white"/>
<path d="M334.562 527.747C335.37 527.567 336.128 527.545 336.835 527.682C337.533 527.834 338.119 528.121 338.595 528.544C339.073 528.978 339.392 529.528 339.553 530.193L337.849 530.573C337.662 530.012 337.319 529.578 336.821 529.272C336.313 528.979 335.661 528.922 334.864 529.1C334.103 529.269 333.547 529.59 333.198 530.062C332.839 530.547 332.726 531.089 332.859 531.686C332.964 532.155 333.178 532.507 333.501 532.742C333.824 532.977 334.195 533.128 334.616 533.194C335.036 533.26 335.594 533.308 336.289 533.337C337.144 533.367 337.841 533.433 338.38 533.534C338.907 533.638 339.396 533.873 339.847 534.24C340.289 534.621 340.594 535.192 340.764 535.953C340.913 536.621 340.875 537.25 340.651 537.841C340.426 538.432 340.04 538.936 339.494 539.353C338.936 539.773 338.259 540.072 337.462 540.249C336.315 540.505 335.314 540.427 334.459 540.016C333.594 539.606 333.008 538.938 332.703 538.01L334.459 537.618C334.622 538.074 334.96 538.429 335.472 538.683C335.986 538.95 336.6 539.003 337.315 538.844C337.982 538.695 338.488 538.398 338.831 537.952C339.177 537.518 339.281 536.991 339.142 536.37C339.043 535.925 338.839 535.59 338.53 535.364C338.21 535.14 337.851 534.993 337.454 534.921C337.048 534.864 336.49 534.817 335.781 534.778C334.923 534.736 334.223 534.658 333.682 534.546C333.143 534.445 332.647 534.205 332.193 533.827C331.743 533.46 331.431 532.89 331.259 532.117C331.125 531.52 331.158 530.922 331.357 530.325C331.555 529.727 331.929 529.195 332.476 528.729C333.024 528.262 333.719 527.935 334.562 527.747Z" fill="white"/>
</svg>
