<svg width="40" height="40" viewBox="0 0 40 40" fill="none" xmlns="http://www.w3.org/2000/svg">
<path d="M39.5102 14.721C39.088 14.1956 38.4516 13.889 37.7778 13.889H35.5556C35.5556 12.6614 34.5609 11.6667 33.3333 11.6667H31.1111V9.44453C31.1111 8.21697 30.1164 7.2223 28.8889 7.2223H27.7778V2.77786C27.7778 2.16453 27.2791 1.66675 26.6667 1.66675H4.44444C3.83022 1.66675 3.33333 2.16453 3.33333 2.77786V7.2223H2.22222C0.994667 7.2223 0 8.21697 0 9.44453V36.1112C0 37.3388 0.994667 38.3334 2.22222 38.3334H6.66667H17.1493V28.8205H14.3716C13.9218 28.8205 13.5173 28.5494 13.344 28.1352C13.1724 27.7201 13.2676 27.2427 13.5849 26.9263L21.3627 19.1494C21.7964 18.7156 22.4996 18.7156 22.9342 19.1494L30.712 26.9272C31.0293 27.2427 31.1271 27.7236 30.9529 28.1379C30.7813 28.553 30.3769 28.8232 29.9271 28.8232H27.1493V38.3343H28.8889H33.3333C34.3751 38.3343 35.2782 37.6116 35.5013 36.5939L39.9458 16.5939C40.0933 15.9343 39.9324 15.2454 39.5102 14.721ZM3.33333 36.1112H2.22222V9.44453H3.33333V36.1112ZM26.6667 11.6667C25.4391 11.6667 24.4444 12.6614 24.4444 13.889H11.1111C10.0693 13.889 9.16622 14.6125 8.94133 15.6294C8.94133 15.6294 4.44622 35.9512 4.44622 36.1112H4.44444V2.77786H26.6667V11.6667ZM28.8889 11.6667H27.7778V9.44453H28.8889V11.6667ZM7.704 11.1112C7.704 10.4979 8.20178 10.0001 8.81511 10.0001H22.0738C22.6871 10.0001 23.1849 10.4979 23.1849 11.1112C23.1849 11.7245 22.6871 12.2223 22.0738 12.2223H8.81511C8.20267 12.2223 7.704 11.7245 7.704 11.1112ZM7.704 6.59297C7.704 5.97964 8.20178 5.48186 8.81511 5.48186H22.0738C22.6871 5.48186 23.1849 5.97964 23.1849 6.59297C23.1849 7.2063 22.6871 7.70408 22.0738 7.70408H8.81511C8.20267 7.70408 7.704 7.20541 7.704 6.59297Z" fill="#1C1C1C"/>
</svg>
