<svg width="578" height="383" viewBox="0 0 578 383" fill="none" xmlns="http://www.w3.org/2000/svg">
<path d="M17.6544 91.9065C13.5172 59.1046 38.0644 29.6752 71.0763 27.8597L506.619 3.90633C543.055 1.90248 571.963 34.1755 565.976 70.172L522.707 330.33C517.78 359.959 490.705 380.68 460.818 377.697L93.7151 341.053C67.2648 338.412 46.151 317.84 42.8247 291.467L17.6544 91.9065Z" fill="#98CCD3"/>
<path d="M17.6544 91.9065C13.5172 59.1046 38.0644 29.6752 71.0763 27.8597L506.619 3.90633C543.055 1.90248 571.963 34.1755 565.976 70.172L522.707 330.33C517.78 359.959 490.705 380.68 460.818 377.697L93.7151 341.053C67.2648 338.412 46.151 317.84 42.8247 291.467L17.6544 91.9065Z" fill="url(#paint0_linear)" fill-opacity="0.2"/>
<path d="M31.8209 91.4642C27.5332 63.8578 48.6424 38.8345 76.5765 38.4097L494.898 32.0486C523.415 31.615 545.45 56.9682 541.046 85.1462L505.457 312.859C501.729 336.716 480.189 353.629 456.129 351.592L103.133 321.709C81.9904 319.919 64.8149 303.9 61.5585 282.933L31.8209 91.4642Z" fill="#364E68"/>
<path d="M31.8209 91.4642C27.5332 63.8578 48.6424 38.8345 76.5765 38.4097L494.898 32.0486C523.415 31.615 545.45 56.9682 541.046 85.1462L505.457 312.859C501.729 336.716 480.189 353.629 456.129 351.592L103.133 321.709C81.9904 319.919 64.8149 303.9 61.5585 282.933L31.8209 91.4642Z" fill="url(#paint1_linear)" fill-opacity="0.26"/>
<g filter="url(#filter0_d)">
<path d="M153.164 36.5487H80.2808C74.9861 36.5487 70.692 40.8428 70.692 46.1375V86.0485H153.164V36.5487Z" fill="#169154"/>
<path d="M70.692 185.295V224.893C70.692 230.188 74.9861 234.482 80.2753 234.482H153.164V185.295H70.692Z" fill="#18482A"/>
<path d="M70.692 86.0484H153.164V135.543H70.692V86.0484Z" fill="#0C8045"/>
<path d="M70.692 135.543H153.164V185.301H70.692V135.543Z" fill="#17472A"/>
<path d="M226.048 36.5487H153.164V86.0485H235.636V46.1375C235.636 40.8428 231.342 36.5487 226.048 36.5487Z" fill="#29C27F"/>
<path d="M153.164 185.295V234.482H226.053C231.342 234.482 235.636 230.188 235.636 224.899V185.301H153.164V185.295Z" fill="#27663F"/>
<path d="M153.164 86.0484H235.636V135.543H153.164V86.0484Z" fill="#19AC65"/>
<path d="M153.164 135.543H235.636V185.301H153.164V135.543Z" fill="#129652"/>
<path d="M116.431 190.497H24.9531C19.8508 190.497 15.7107 186.357 15.7107 181.254V89.7762C15.7107 84.6739 19.8508 80.5338 24.9531 80.5338H116.431C121.533 80.5338 125.673 84.6739 125.673 89.7762V181.254C125.673 186.357 121.533 190.497 116.431 190.497Z" fill="#0C7238"/>
<path d="M47.6384 108.025H60.7569L71.4013 128.665L82.6505 108.025H94.9059L78.0211 135.515L95.2907 163.006H82.3646L70.7635 141.398L59.2119 163.006H46.0934L63.6489 135.416L47.6384 108.025Z" fill="white"/>
</g>
<g filter="url(#filter1_d)">
<path d="M511.635 179.877V309.516C511.635 315.249 507.738 320.077 502.443 321.482C501.423 321.755 500.353 321.899 499.251 321.899H290.351C283.511 321.899 277.967 316.356 277.967 309.516V179.877C277.967 173.036 283.511 167.493 290.351 167.493H499.251C500.353 167.493 501.423 167.637 502.443 167.91C507.738 169.315 511.635 174.143 511.635 179.877Z" fill="#E6E6E6"/>
<path d="M511.634 179.874V192.196H277.966V179.874C277.966 173.034 283.51 167.491 290.35 167.491H499.25C506.09 167.492 511.634 173.035 511.634 179.874Z" fill="#B3B3B3"/>
<path d="M353.359 199.644H292.162V208.153H353.359V199.644Z" fill="#999999"/>
<path d="M498.183 241.726H402.589V309.526H498.183V241.726Z" fill="white"/>
<path d="M494.152 296.781H407.17V305.29H494.152V296.781Z" fill="#29ABE2"/>
<path d="M417.978 280.317H407.17V288.826H417.978V280.317Z" fill="#FC7A51"/>
<path d="M450.918 263.852H407.17V272.361H450.918V263.852Z" fill="#F9DE58"/>
<path d="M482.314 247.388H407.17V255.897H482.314V247.388Z" fill="#999999"/>
<path d="M294.951 187.564C299.214 187.564 302.671 184.108 302.671 179.844C302.671 175.58 299.214 172.124 294.951 172.124C290.687 172.124 287.23 175.58 287.23 179.844C287.23 184.108 290.687 187.564 294.951 187.564Z" fill="#FC7A51"/>
<path d="M315.538 187.564C319.802 187.564 323.258 184.108 323.258 179.844C323.258 175.58 319.802 172.124 315.538 172.124C311.274 172.124 307.818 175.58 307.818 179.844C307.818 184.108 311.274 187.564 315.538 187.564Z" fill="#F9DE58"/>
<path d="M509.152 172.436C510.71 174.507 511.634 177.083 511.634 179.875V192.197H499.631C499.651 210.673 489.636 228.525 472.124 237.668C471.042 238.142 469.95 238.583 468.848 238.992L470.276 241.727H498.183V309.527H424.16L427.931 321.899H499.251C500.352 321.899 501.423 321.755 502.442 321.482C507.738 320.077 511.634 315.249 511.634 309.516V179.877C511.635 177.084 510.711 174.508 509.152 172.436ZM509.132 172.41C509.138 172.418 509.144 172.426 509.15 172.434C509.144 172.426 509.138 172.418 509.132 172.41ZM509.113 172.385C509.117 172.39 509.121 172.396 509.125 172.401C509.121 172.396 509.117 172.39 509.113 172.385ZM509.097 172.364C509.099 172.366 509.1 172.368 509.102 172.37C509.1 172.368 509.099 172.366 509.097 172.364Z" fill="#EEEEEE"/>
<path d="M499.251 167.493H493.209C493.413 167.862 493.613 168.233 493.809 168.609C497.749 176.155 499.621 184.234 499.63 192.197H511.633V179.875C511.633 177.083 510.709 174.507 509.151 172.436C509.151 172.436 509.15 172.435 509.15 172.435C509.144 172.426 509.138 172.419 509.131 172.41C509.129 172.407 509.127 172.404 509.124 172.401C509.12 172.396 509.116 172.391 509.112 172.386C509.109 172.381 509.105 172.376 509.101 172.371C509.099 172.369 509.098 172.367 509.096 172.365C507.456 170.218 505.129 168.623 502.441 167.911C501.423 167.637 500.353 167.493 499.251 167.493Z" fill="#CBCBCB"/>
<path d="M498.183 241.726H470.275L473.016 246.977C472.749 247.117 472.481 247.254 472.213 247.388H482.314V255.897H407.816L410.241 263.852H450.918V272.361H412.834L415.258 280.317H417.979V288.826H417.852L420.277 296.781H494.153V305.29H422.87L424.161 309.526H498.183V241.726" fill="white"/>
<path d="M494.152 296.781H420.276L422.869 305.29H494.152V296.781Z" fill="#6EC6EB"/>
<path d="M417.978 280.317H415.258L417.852 288.826H417.978V280.317Z" fill="#FDA589"/>
<path d="M450.918 263.852H410.241L412.834 272.361H450.918V263.852Z" fill="#FBE98E"/>
<path d="M397.243 192.196H388.402L403.497 241.726H435.875C435.121 241.581 434.369 241.422 433.619 241.248L433.103 241.129C420.606 237.204 409.608 228.514 403.065 215.984C399.092 208.373 397.221 200.224 397.243 192.196Z" fill="#EEEEEE"/>
<path d="M403.659 167.493H380.874L388.403 192.196H397.244C397.258 187.008 398.064 181.87 399.605 176.964C400.634 173.687 401.991 170.512 403.659 167.493Z" fill="#CBCBCB"/>
<path d="M435.875 241.726H403.497L407.17 253.778V247.388H434.954L436.685 241.877C436.415 241.828 436.145 241.778 435.875 241.726Z" fill="white"/>
<path d="M482.314 247.388H472.213C464.879 251.057 457.07 252.799 449.37 252.799C444.134 252.799 438.947 251.993 433.997 250.439L434.954 247.388H407.17V253.778L407.816 255.897H482.314V247.388" fill="#BABABA"/>
<path d="M468.848 238.992C465.659 240.176 462.388 241.089 459.072 241.727H470.275L468.848 238.992Z" fill="#CECECE"/>
<path d="M470.275 241.726H459.072C455.249 242.461 451.366 242.831 447.473 242.831C443.871 242.831 440.26 242.514 436.686 241.877L434.955 247.388H472.214C472.482 247.254 472.75 247.117 473.017 246.977L470.275 241.726Z" fill="#DBDBDB"/>
<path d="M472.213 247.388H434.954L433.997 250.439C438.947 251.993 444.134 252.799 449.37 252.799C457.07 252.799 464.879 251.057 472.213 247.388Z" fill="#A4A4A4"/>
<path d="M448.39 141.103C440.409 141.103 432.311 142.975 424.748 146.924C415.506 151.748 408.352 159.001 403.659 167.491H493.208C486.606 155.561 475.893 147.27 463.768 143.465C458.817 141.91 453.628 141.103 448.39 141.103Z" fill="#DBDBDB"/>
<path d="M493.209 167.492H403.66L403.659 167.493H493.21L493.209 167.492Z" fill="#9F9F9F"/>
<path d="M499.63 192.196H397.243C397.221 200.224 399.092 208.373 403.065 215.984C409.608 228.514 420.606 237.204 433.103 241.129L433.619 241.248C434.369 241.422 435.121 241.581 435.875 241.726H459.071C462.388 241.089 465.658 240.176 468.847 238.992C469.95 238.583 471.041 238.141 472.123 237.667C489.635 228.525 499.651 210.673 499.63 192.196Z" fill="#CECECE"/>
<path d="M493.21 167.493H403.659C401.991 170.512 400.634 173.686 399.604 176.964C398.064 181.87 397.258 187.009 397.243 192.196H499.63C499.622 184.234 497.749 176.154 493.809 168.608C493.613 168.233 493.413 167.862 493.21 167.493Z" fill="#B2B2B2"/>
<path d="M459.072 241.726H435.875C436.145 241.778 436.415 241.828 436.685 241.877C440.26 242.514 443.87 242.831 447.473 242.831C451.365 242.831 455.249 242.461 459.072 241.726Z" fill="#DBDBDB"/>
<path d="M448.437 185.348L445.74 193.938L433.104 234.176C420.607 230.254 409.609 221.561 403.067 209.034C396.525 196.501 395.681 182.512 399.603 170.015L442.559 183.5L448.437 185.348Z" fill="#F9DE58"/>
<path d="M473.018 240.028C469.168 242.035 465.179 243.507 461.139 244.47C452.029 246.636 442.657 246.209 433.994 243.487L447.618 200.104L449.327 194.653L473.018 240.028Z" fill="#29ABE2"/>
<path d="M472.122 230.717L448.437 185.348L442.559 183.5L399.603 170.015C403.53 157.513 412.218 146.515 424.746 139.973C426.058 139.288 427.381 138.666 428.724 138.11C440.186 133.308 452.58 132.999 463.769 136.514C476.271 140.436 487.27 149.124 493.811 161.657C506.889 186.717 497.182 217.634 472.122 230.717Z" fill="#FC7A51"/>
<path d="M387.01 213.933H291.417V309.526H387.01V213.933Z" fill="white"/>
<path d="M318.669 257.803H300.141V304.122H318.669V257.803Z" fill="#2BE0C6"/>
<path d="M348.478 242.363H329.95V304.122H348.478V242.363Z" fill="#F9DE58"/>
<path d="M378.286 225.379H359.759V304.122H378.286V225.379Z" fill="#FC7A51"/>
<path d="M395.475 294.739V361.134H270.494V294.739H395.475Z" fill="#29ABE2"/>
<path d="M278.214 353.413V302.459H387.753V353.413H278.214Z" fill="#F2F2F2"/>
<path d="M326.113 348.891L315.482 337.373L310.981 343.48L307.5 340.916L315.107 330.593L325.23 341.559L341.129 312.853L353.248 332.329L367.457 306.982L371.229 309.096L353.442 340.825L341.346 321.386L326.113 348.891Z" fill="#FC7A51"/>
<path d="M297.772 311.209H283.876V316.87H297.772V311.209Z" fill="#999999"/>
<path d="M297.772 325.105H283.876V330.767H297.772V325.105Z" fill="#999999"/>
<path d="M297.772 339.002H283.876V344.664H297.772V339.002Z" fill="#999999"/>
<path d="M395.475 294.739H378.286H359.759H348.478H329.95H318.669H318.298L320.651 302.459H387.753V353.413H336.178L338.531 361.134H395.475V294.739Z" fill="#6EC6EB"/>
<path d="M387.753 302.459H320.651L329.962 333.016L341.129 312.853L353.248 332.329L367.458 306.982L371.23 309.096L353.442 340.825L341.347 321.386L331.717 338.773L336.178 353.413H387.753V302.459Z" fill="#F6F6F6"/>
<path d="M367.457 306.982L353.248 332.329L341.129 312.853L329.962 333.016L331.717 338.773L341.346 321.386L353.442 340.825L371.23 309.096L367.457 306.982Z" fill="#FDA589"/>
<path d="M473.124 342.164L477.491 331.53L490.487 344.526C491.241 345.28 492.23 345.658 493.216 345.654C494.206 345.654 495.193 345.28 495.946 344.526C497.456 343.016 497.452 340.574 495.946 339.067L482.949 326.071L493.588 321.7L453.154 301.734L473.124 342.164Z" fill="#CCCCCC"/>
<path d="M473.124 342.164L477.491 331.53L490.487 344.526C491.241 345.28 492.23 345.658 493.216 345.654C494.206 345.654 495.193 345.28 495.946 344.526L453.154 301.734L473.124 342.164Z" fill="#808080"/>
</g>
<defs>
<filter id="filter0_d" x="0.710693" y="25.5487" width="249.926" height="227.933" filterUnits="userSpaceOnUse" color-interpolation-filters="sRGB">
<feFlood flood-opacity="0" result="BackgroundImageFix"/>
<feColorMatrix in="SourceAlpha" type="matrix" values="0 0 0 0 0 0 0 0 0 0 0 0 0 0 0 0 0 0 127 0" result="hardAlpha"/>
<feOffset dy="4"/>
<feGaussianBlur stdDeviation="7.5"/>
<feComposite in2="hardAlpha" operator="out"/>
<feColorMatrix type="matrix" values="0 0 0 0 0 0 0 0 0 0 0 0 0 0 0 0 0 0 0.4 0"/>
<feBlend mode="normal" in2="BackgroundImageFix" result="effect1_dropShadow"/>
<feBlend mode="normal" in="SourceGraphic" in2="effect1_dropShadow" result="shape"/>
</filter>
<filter id="filter1_d" x="255.494" y="123.152" width="271.141" height="256.981" filterUnits="userSpaceOnUse" color-interpolation-filters="sRGB">
<feFlood flood-opacity="0" result="BackgroundImageFix"/>
<feColorMatrix in="SourceAlpha" type="matrix" values="0 0 0 0 0 0 0 0 0 0 0 0 0 0 0 0 0 0 127 0" result="hardAlpha"/>
<feOffset dy="4"/>
<feGaussianBlur stdDeviation="7.5"/>
<feComposite in2="hardAlpha" operator="out"/>
<feColorMatrix type="matrix" values="0 0 0 0 0 0 0 0 0 0 0 0 0 0 0 0 0 0 0.4 0"/>
<feBlend mode="normal" in2="BackgroundImageFix" result="effect1_dropShadow"/>
<feBlend mode="normal" in="SourceGraphic" in2="effect1_dropShadow" result="shape"/>
</filter>
<linearGradient id="paint0_linear" x1="282.592" y1="9.51789" x2="289.477" y2="375.012" gradientUnits="userSpaceOnUse">
<stop stop-opacity="0"/>
<stop offset="1"/>
</linearGradient>
<linearGradient id="paint1_linear" x1="329.04" y1="-85.661" x2="271.956" y2="475.793" gradientUnits="userSpaceOnUse">
<stop offset="0.0800055" stop-color="white"/>
<stop offset="0.989098" stop-opacity="0"/>
</linearGradient>
</defs>
</svg>
