<svg width="40" height="40" viewBox="0 0 40 40" fill="none" xmlns="http://www.w3.org/2000/svg">
<path d="M20 40C31.0457 40 40 31.0457 40 20C40 8.9543 31.0457 0 20 0C8.9543 0 0 8.9543 0 20C0 31.0457 8.9543 40 20 40Z" fill="url(#paint0_linear)"/>
<path d="M25.8594 12.9688C25.8594 9.73789 23.2309 7.10938 20 7.10938C16.7691 7.10938 14.1406 9.73789 14.1406 12.9688C14.1406 16.1996 16.7691 18.8281 20 18.8281C23.2309 18.8281 25.8594 16.1996 25.8594 12.9688ZM20 18.8281C14.1845 18.8281 9.45312 23.5595 9.45312 29.375V30.4733C9.45312 30.8064 9.59484 31.1238 9.84297 31.346C14.1406 31.346 16.3047 31.346 20 31.346C23.6954 31.346 25.8594 31.346 30.157 31.346C30.4052 31.1238 30.5469 30.8063 30.5469 30.4733V29.375C30.5469 23.5595 25.8155 18.8281 20 18.8281Z" fill="white"/>
<defs>
<linearGradient id="paint0_linear" x1="20" y1="40" x2="20" y2="0" gradientUnits="userSpaceOnUse">
<stop stop-color="#0D0D0D" stop-opacity="0.52"/>
<stop offset="1" stop-color="#1C7293"/>
</linearGradient>
</defs>
</svg>
